HIERARCHY
ROOT Hips
{
  OFFSET -35.2597 29.1586 114.425
  CHANNELS 6 Xposition Yposition Zposition Zrotation Xrotation Yrotation
  JOINT LeftUpLeg
  {
    OFFSET 8.64259 1.95398 -2.38835
    CHANNELS 3 Zrotation Xrotation Yrotation
    JOINT LeftLeg
    {
      OFFSET 43.7702 0 0
      CHANNELS 3 Zrotation Xrotation Yrotation
      JOINT LeftFoot
      {
        OFFSET 40.6238 0 0
        CHANNELS 3 Zrotation Xrotation Yrotation
        JOINT LeftToeBase
        {
          OFFSET 12.7242 0 0
          CHANNELS 3 Zrotation Xrotation Yrotation
          End Site
          {
            OFFSET 0 0 0
          }
        }
      }
    }
  }
  JOINT RightUpLeg
  {
    OFFSET -8.2249 1.95398 -2.59336
    CHANNELS 3 Zrotation Xrotation Yrotation
    JOINT RightLeg
    {
      OFFSET 43.5653 0 0
      CHANNELS 3 Zrotation Xrotation Yrotation
      JOINT RightFoot
      {
        OFFSET 40.6238 0 0
        CHANNELS 3 Zrotation Xrotation Yrotation
        JOINT RightToeBase
        {
          OFFSET 12.7242 0 0
          CHANNELS 3 Zrotation Xrotation Yrotation
          End Site
          {
            OFFSET 0 0 0
          }
        }
      }
    }
  }
  JOINT Spine
  {
    OFFSET 0.165834 0.87714 6.61349
    CHANNELS 3 Zrotation Xrotation Yrotation
    JOINT Spine1
    {
      OFFSET 7.38963 1.71661e-005 0
      CHANNELS 3 Zrotation Xrotation Yrotation
      JOINT Spine2
      {
        OFFSET 11.9445 1.14441e-005 0
        CHANNELS 3 Zrotation Xrotation Yrotation
        JOINT Spine3
        {
          OFFSET 14.7254 4.19617e-005 0
          CHANNELS 3 Zrotation Xrotation Yrotation
          JOINT Spine4
          {
            OFFSET 10.9679 0 0
            CHANNELS 3 Zrotation Xrotation Yrotation
            JOINT RightShoulder
            {
              OFFSET 2.46616 -1.6653 3.69651
              CHANNELS 3 Zrotation Xrotation Yrotation
              JOINT RightArm
              {
                OFFSET 13.0012 0 0
                CHANNELS 3 Zrotation Xrotation Yrotation
                JOINT RightForeArm
                {
                  OFFSET 28.7848 1.62311e-005 0
                  CHANNELS 3 Zrotation Xrotation Yrotation
                  JOINT RightHand
                  {
                    OFFSET 26.5688 1.62095e-005 0
                    CHANNELS 3 Zrotation Xrotation Yrotation
                    End Site
                    {
                      OFFSET 0 0 0
                    }
                  }
                }
              }
            }
            JOINT LeftShoulder
            {
              OFFSET 2.38034 -1.29275 -3.7523
              CHANNELS 3 Zrotation Xrotation Yrotation
              JOINT LeftArm
              {
                OFFSET 16.3182 6.07031e-005 0
                CHANNELS 3 Zrotation Xrotation Yrotation
                JOINT LeftForeArm
                {
                  OFFSET 27.0901 0 0
                  CHANNELS 3 Zrotation Xrotation Yrotation
                  JOINT LeftHand
                  {
                    OFFSET 24.5451 1.51738e-005 0
                    CHANNELS 3 Zrotation Xrotation Yrotation
                    End Site
                    {
                      OFFSET 0 0 0
                    }
                  }
                }
              }
            }
            JOINT Neck
            {
              OFFSET 5.0226 -0.0266342 0
              CHANNELS 3 Zrotation Xrotation Yrotation
              JOINT Head
              {
                OFFSET 6.69364 2.86102e-005 0
                CHANNELS 3 Zrotation Xrotation Yrotation
                End Site
                {
                  OFFSET 0 0 0
                }
              }
            }
          }
        }
      }
    }
  }
}
MOTION
Frames:	17
Frame Time:	0.0416667
-325.473 85.7881 305.536 59.856 64.6399 125.677 177.995 -1.49589 103.667 -61.0259 22.9208 13.3699 28.533 -12.7887 -15.2714 107.364 22.1613 -33.6102 160.045 33.98 93.759 -50.6004 1.34889 20.2471 83.4488 -10.2578 7.21497 21.2359 2.71856 1.46233 -3.30546 7.03677 -91.6658 12.7361 -7.36056 -2.45771 1.0844 -7.46153 -2.12982 -21.5623 -6.28122 -4.5623 -1.54968 -6.28121 -4.56231 115.653 -46.5462 -60.2279 42.6196 -2.94368 -42.0895 -7.31991 -61.6346 -6.9526 -51.9971 49.5552 -92.7506 -78.8992 -14.0422 94.0734 -31.7641 4.48377 -76.2112 1.77593 -32.5726 -2.74589 21.1488 -18.731 -80.8818 67.256 -16.9146 -23.1739 -56.8004 -9.84809 24.4542 
-318.628 84.6693 299.363 74.2395 45.9737 115.861 -175.974 12.5299 101.015 -87.2081 10.7403 5.86934 51.1363 -5.21963 3.81232 89.9942 23.1207 -16.1282 165.031 28.9285 104.563 -52.6695 -0.264785 10.5437 90.0279 -14.2403 9.46819 23.1227 -0.397691 8.05424 -1.48055 7.6676 -92.085 11.4626 -3.91895 -3.74742 -0.20738 -4.07997 -3.57139 -22.7236 -2.61305 -4.7506 -2.71089 -2.61306 -4.7506 101.91 -49.8712 -82.4659 30.7118 9.44872 -2.67972 -42.6913 -41.4709 -65.4281 -51.7868 40.8459 -74.9544 -87.0359 -40.172 80.9972 -21.1465 -12.7528 -71.5036 1.79312 -31.5655 -2.78392 16.0489 -16.9781 -87.6633 50.9427 -0.388668 -17.309 -34.6814 5.01097 17.517 
-312.231 83.3603 293.393 78.5122 27.6364 109.572 -165.533 35.3021 94.0785 -104.835 9.29282 3.6526 58.4272 -0.812887 8.83624 68.2247 17.1698 -6.33785 173.763 26.8413 104.815 -53.3085 -12.1393 3.61137 90.034 -18.6833 3.72122 27.7508 -1.10759 5.19324 0.266895 7.93334 -91.9208 10.9821 -0.358505 -3.79468 -0.694387 -0.525031 -3.77528 -23.1855 0.797604 -3.72731 -3.17286 0.797618 -3.7273 88.1476 -38.0937 -107.394 27.4337 9.87629 21.9482 -33.1247 3.92238 -92.6844 -48.7558 16.0162 -43.2416 -83.4268 -48.6542 88.4653 -18.6316 -13.9133 -68.3114 2.99882 -7.40113 1.68228 24.3449 -26.953 -97.8738 33.756 10.3744 0.332444 -12.7504 9.28705 4.83053 
-302.817 84.2062 285.454 80.25 23.5874 103.884 -165.347 48.4054 90.4484 -105.066 11.088 3.47528 65.9579 5.22273 14.7194 25.3734 2.57513 -8.21719 176.346 16.1172 97.1332 -49.0158 -18.0954 0.258461 88.8967 -21.9507 -4.15175 32.0992 -3.83673 9.59346 1.80468 7.69752 -91.2565 11.5207 3.00248 -2.81331 -0.150133 2.87582 -2.94268 -22.7015 3.70904 -1.78056 -2.68888 3.70905 -1.78057 89.4384 -28.6383 -108.334 26.0471 17.7849 11.1497 -30.2579 3.1821 -100.672 -56.0315 18.7113 -39.9403 -82.5691 -44.2043 89.3664 -17.3687 -22.0446 -15.3985 65.7188 27.792 -82.0681 50.4266 -33.12 -63.5643 25.6821 5.84132 4.03249 -7.30711 3.98382 2.26875 
-291.449 87.5795 275.22 82.4376 26.5828 99.5901 -171.401 51.4709 89.7381 -89.0029 -2.44821 2.87217 74.4061 9.13959 7.35961 17.5193 -1.15504 -7.61787 173.89 -0.345671 91.2839 -35.574 -22.8392 -0.968743 71.7825 -9.64189 -4.43911 47.6537 -8.85446 12.4374 2.84761 7.66209 -90.7434 11.6056 5.31666 -2.03165 -0.0563989 5.22211 -2.26418 -22.6782 5.68073 -0.335043 -2.66556 5.68074 -0.335051 94.7236 -15.0666 -102.017 26.0019 15.4037 14.9292 -27.7461 5.68758 -105.674 -67.9561 19.7164 -34.37 -82.6603 -36.2617 88.3381 -20.3073 -16.1491 20.6119 86.314 -6.28384 -92.6099 50.7219 -29.591 -59.966 25.0842 -0.542219 4.09033 -10.383 -1.96487 -0.285344 
-278.629 91.1237 263.982 82.316 33.2271 96.598 -177.439 49.4654 87.9634 -64.588 -3.27043 1.93371 75.057 9.96969 6.2109 17.561 -2.01115 -6.16393 173.162 -12.8579 86.6766 -23.4959 -25.0806 -3.61301 54.9715 3.2268 0.0358246 30.3721 -3.86786 12.4783 3.11147 7.55226 -89.9312 11.8128 6.22011 -0.533238 0.156595 6.19059 -0.807543 -22.4957 6.09176 1.368 -2.48303 6.09175 1.36799 96.056 -9.54943 -100.646 25.5508 17.2752 30.6644 -32.0924 10.2193 -111.161 -62.3931 19.5678 -37.5362 -82.6624 -26.7632 86.9622 -22.5161 -6.14035 40.6587 85.6093 -15.9953 -93.5103 52.5263 -30.1125 -58.9938 27.157 -7.53899 -2.2762 -16.311 -6.34185 -0.681916 
-265.759 93.3089 252.91 83.0695 33.2046 93.6665 -178.121 41.9049 88.0437 -36.1905 3.99285 -0.313793 69.3032 7.41573 3.94655 25.9846 -0.297955 -2.05837 173.067 -18.0708 86.2059 -29.0082 -26.0296 -7.12176 57.6256 2.15196 -2.68974 14.7706 1.46642 10.681 3.63084 7.44414 -89.0966 11.9626 7.64474 0.977483 0.314108 7.68034 0.638071 -22.3756 6.99588 3.24055 -2.36294 6.99587 3.24054 95.1084 -11.9735 -102.3 25.7321 11.4204 33.9195 -36.5301 11.536 -110.142 -68.6167 19.8206 -34.4269 -82.7984 -23.657 86.1746 -22.8566 -7.23696 59.0005 86.7482 -24.459 -93.8913 47.4746 -29.1005 -62.5956 23.9665 -11.8222 -8.34487 -16.6259 -8.2731 -1.90561 
-254.433 93.1616 242.133 82.848 37.4591 98.068 -179.143 36.8081 90.7478 -18.4054 13.3705 -0.431147 67.9551 7.32892 1.34708 23.8705 -5.60346 5.49651 172.608 -20.2796 90.1845 -33.3828 -12.5264 -1.14376 59.1008 1.54884 -0.524434 20.593 -1.32584 13.0993 3.27488 7.17604 -89.5705 12.5507 6.71189 0.0948756 0.897095 6.70948 -0.201961 -21.7676 6.37193 2.11594 -1.75494 6.37195 2.11595 94.0512 -15.8401 -103.432 27.8743 1.4828 38.2315 -36.6209 9.97496 -107.599 -51.3877 20.4183 -46.7496 -82.9868 -33.0702 87.3075 -19.0073 -19.1807 72.9789 97.9092 -30.6472 -88.8075 43.4261 -27.2489 -64.0131 21.5332 -11.6203 -7.45536 -15.4503 -8.53093 -2.53413 
-243.471 92.8037 229.936 93.3474 37.8501 89.813 -177.754 26.4432 87.6258 -21.0643 7.11499 -0.727239 62.4211 2.00127 1.8545 19.6088 -7.53218 4.55836 166.648 -23.0784 82.4649 -48.3217 -11.4175 -1.81586 63.1633 -2.22219 -3.71588 18.8743 0.31413 10.1569 2.96701 7.86185 -89.6452 11.1602 6.0703 0.113578 -0.496515 6.0694 -0.154703 -23.1373 5.75457 1.93883 -3.12469 5.75456 1.93882 92.4092 -22.8281 -104.473 35.2438 -6.98925 39.753 -42.3221 2.30171 -95.7967 -45.5647 16.7207 -44.2652 -83.7169 -45.2896 87.6433 -16.2023 -26.5976 81.168 100.938 -32.4959 -87.0238 49.5716 -23.8438 -51.0863 18.7682 -10.2402 -8.0034 -15.0387 -7.32989 -1.81339 
-233.635 91.102 220.827 90.3208 40.9683 92.5977 -174.069 31.7291 86.9704 -41.3384 14.3101 -2.66919 66.3131 4.33852 6.50717 18.1224 -2.22358 -5.45286 168.418 -6.71351 90.2586 -69.815 -3.29057 -0.896049 64.6016 -3.6619 -5.49632 13.4925 2.44136 9.49775 1.93989 7.43817 -89.6076 11.9977 4.04197 0.34488 0.33296 4.05324 0.166365 -22.2455 3.75108 1.54527 -2.23282 3.75111 1.54528 91.5209 -29.5219 -103.871 42.2379 -3.14246 35.1291 -50.8051 -16.3437 -79.3598 -40.1341 12.6279 -39.1609 -85.6329 -56.586 86.1472 -18.406 -24.1262 70.6244 93.2309 -33.0635 -91.0459 52.0444 -20.042 -42.0276 16.2925 -8.20214 -11.6058 -13.3448 -4.83952 0.988283 
-224.751 89.4546 211.679 94.5855 43.4935 84.2516 -172.407 21.651 81.0387 -47.825 14.8604 -3.37927 78.4399 15.2265 7.52668 19.9409 -5.54176 1.69364 169.456 6.34135 81.6163 -87.2583 -1.64883 -2.91752 69.762 -7.89254 -7.97257 13.3529 2.27166 9.97735 0.624208 7.86899 -89.0454 11.1188 1.6854 1.73301 -0.551916 1.76 1.65716 -23.0837 1.08678 2.15934 -3.07102 1.08677 2.15934 91.5684 -30.6181 -103.423 42.9062 5.21621 28.4355 -52.5055 -40.8933 -63.0669 -40.3367 11.1262 -35.0564 -86.1476 -61.8915 86.1089 -20.7034 -12.9987 41.5672 88.9729 -26.6545 -93.1076 54.2939 -15.4705 -32.6397 15.0742 -4.15353 -9.93533 -11.6423 -1.26548 -0.995308 
-215.933 89.1197 202.122 95.3382 43.2114 85.2714 -172.205 10.7947 84.0285 -46.6879 12.8119 -2.89997 86.5347 21.5541 5.62106 24.5246 -4.81715 4.88687 174.078 22.4851 87.7816 -90.4675 -1.84831 -3.46986 73.5467 -10.5814 -7.75862 13.2451 1.38214 12.1046 -0.309132 7.68482 -89.2488 11.5051 -0.263306 1.53019 -0.166803 -0.195703 1.54028 -22.6957 -0.710962 1.38036 -2.683 -0.710956 1.38036 93.3062 -30.0505 -100.137 40.6753 11.1804 24.8326 -30.2783 -52.6454 -35.0306 -43.5982 14.0108 -39.8599 -86.5969 -58.2308 85.0347 -20.1232 -12.6626 15.3467 84.6263 -18.2408 -94.0842 57.0964 -18.9943 -36.7452 12.1148 1.10026 -6.95036 -12.3955 2.92061 -1.28359 
-206.201 90.6995 191.906 95.2874 42.3195 87.4342 -171.055 -1.75461 86.4318 -39.3077 12.0363 -2.87581 83.497 19.5387 5.55953 29.8085 0.0540229 0.956019 177.06 31.5068 92.1505 -77.5875 1.5486 -2.98807 75.3507 -10.7688 -7.56097 17.0873 0.920369 10.1487 -1.34868 7.55903 -89.7262 11.7673 -2.55377 0.815744 0.0985099 -2.51538 0.927403 -22.4568 -2.68079 0.00998827 -2.44413 -2.68079 0.00997946 94.8286 -26.4321 -97.9753 32.019 14.6162 40.0322 -48.8585 -48.4256 -56.1705 -36.9301 11.9714 -40.6284 -85.9143 -50.4817 84.931 -20.7424 -18.5467 16.4251 81.5601 -23.0782 -95.763 60.5015 -18.139 -33.5048 10.5834 7.68931 -1.0842 -13.5939 7.94874 -1.28934 
-195.568 92.9735 180.967 98.119 39.8583 87.1578 -169.31 -14.2414 91.0752 -30.1857 16.2065 -3.20744 64.3817 3.83557 5.04021 46.0625 8.00956 -0.113992 179.677 31.1752 94.8682 -53.7109 -0.461467 -2.27989 70.5313 -6.85842 -5.7841 14.9032 2.65663 7.77559 -2.091 7.71181 -90.043 11.4647 -4.18033 0.340081 -0.199563 -4.16129 0.524054 -22.7875 -4.08892 -0.934186 -2.77488 -4.08893 -0.934188 95.4611 -22.7801 -97.5195 25.1771 16.986 42.4645 -45.059 -48.8062 -52.2804 -36.6217 14.0821 -46.8141 -84.8447 -42.7741 85.4708 -21.9254 -26.6181 27.6973 81.1593 -30.9479 -97.1365 61.5755 -17.9993 -32.6921 9.82359 12.9757 2.15126 -15.5515 12.1261 1.39735 
-184.747 93.5553 169.79 97.1923 38.9243 89.2151 -171.189 -20.5241 90.9656 -29.8643 14.9298 -0.340359 58.4019 -1.90808 0.316051 35.1281 2.22051 2.08596 -179.451 27.2196 96.5862 -24.0186 -9.63063 -0.402374 62.1169 -2.55142 0.20115 20.5147 1.56024 5.39603 -2.4372 7.54427 -90.4097 11.7878 -5.03922 -0.279972 0.12659 -5.04666 -0.0573435 -22.4795 -4.72159 -1.78488 -2.46683 -4.72159 -1.78488 97.3234 -24.13 -93.0708 14.1037 23.2537 53.3597 -41.2275 -32.8912 -57.6921 -30.8916 12.64 -50.0709 -84.6792 -36.2304 84.7193 -22.031 -29.7753 33.2365 78.2364 -31.8939 -98.8242 60.3732 -18.9342 -34.825 9.22644 14.7796 2.94616 -17.5972 13.3597 4.26996 
-174.231 92.5654 159.364 98.4719 39.9036 86.298 -172.147 -22.345 89.2932 -40.8847 6.54656 1.19908 65.8244 3.42467 2.76147 31.5084 1.78099 -0.96045 -179.376 24.6216 95.9277 -12.9852 -11.045 -0.0550716 61.2376 -2.89312 2.08729 21.2064 1.06826 5.934 -2.68453 7.40932 -90.229 12.0721 -5.44509 0.139564 0.412607 -5.43365 0.37979 -22.2096 -5.23453 -1.50796 -2.197 -5.23456 -1.50797 113.054 -27.2865 -59.3084 15.4698 25.9388 42.9732 -59.6537 -18.2537 -80.9913 -24.0208 9.65675 -49.1815 -84.4062 -34.7411 84.9604 -21.737 -30.7744 32.0658 75.0526 -29.657 -99.9812 51.2703 -21.0936 -44.5547 5.66818 14.5328 1.42773 -15.8116 13.2321 7.10618 
-164.188 90.8394 149.749 103.691 40.4563 80.8311 -168.309 -18.4005 92.4053 -60.1582 0.850635 1.05002 67.6267 5.04096 5.864 25.3959 -1.71874 0.0459138 179.195 25.2557 95.351 -27.3531 -17.2391 -0.345254 56.0906 2.31282 0.481325 19.304 1.44759 6.81189 -2.54573 7.59945 -89.9371 11.6996 -5.03396 0.652822 0.0381633 -5.00035 0.874292 -22.5742 -4.99684 -0.89418 -2.56154 -4.99683 -0.894175 114.553 -19.2259 -52.0047 25.1895 17.0881 35.5261 -62.0254 -17.9614 -81.9972 -30.1821 9.54554 -40.3016 -85.0348 -40.1375 84.751 -20.2767 -15.6455 36.1222 88.3838 -27.4534 -93.3788 75.4628 0.194435 -4.01696 3.92786 13.457 1.31941 -14.7998 12.4243 5.93946 
